<?xml version="1.0" encoding="utf-8"?>
<!-- Generator: Adobe Illustrator 14.0.0, SVG Export Plug-In  -->
<!DOCTYPE svg PUBLIC "-//W3C//DTD SVG 1.1//EN" "http://www.w3.org/Graphics/SVG/1.1/DTD/svg11.dtd" [
	<!ENTITY ns_flows "http://ns.adobe.com/Flows/1.0/">
]>
<svg version="1.1"
	 xmlns="http://www.w3.org/2000/svg" xmlns:xlink="http://www.w3.org/1999/xlink" xmlns:a="http://ns.adobe.com/AdobeSVGViewerExtensions/3.0/"
	 x="0px" y="0px" width="1800px" height="613px" viewBox="-0.023 0 1800 613" enable-background="new -0.023 0 1800 613"
	 xml:space="preserve">
<defs>
</defs>
<path fill="#1A171B" d="M86.781,416.455c-6.651,2.829-7.879,3.366-9.235,4.061c-1.453,0.72-2.004,1.367-1.703,2.934
	c0.075,0.402,0.348,1.16,0.62,1.77c0.202,0.481,0.226,0.79-0.098,0.909c-0.285,0.135-0.521-0.119-0.794-0.79
	c-0.996-2.324-2.039-5.129-2.613-6.434c-0.445-1.044-1.754-3.754-2.434-5.323c-0.276-0.672-0.312-1.018-0.015-1.142
	c0.301-0.138,0.513,0.1,0.695,0.534c0.201,0.474,0.364,0.734,0.672,1.205c0.723,1.094,1.617,1.117,3.186,0.549
	c1.438-0.497,2.671-1.02,9.321-3.88l6.113-2.62c6.354-2.734,8.479-5.137,9.31-8.03c0.77-2.674,0.087-4.748-0.558-6.227
	c-0.822-1.928-2.45-4.031-4.947-5.034c-3.43-1.383-7.432,0.174-11.934,2.109l-5.48,2.353c-6.638,2.856-7.867,3.379-9.234,4.05
	c-1.443,0.746-1.988,1.396-1.679,2.96c0.063,0.383,0.323,1.141,0.549,1.64c0.198,0.475,0.222,0.771-0.074,0.896
	c-0.313,0.146-0.521-0.139-0.799-0.758c-0.956-2.226-2.011-5.034-2.023-5.086c-0.225-0.522-1.541-3.231-2.263-4.919
	c-0.262-0.613-0.309-0.961,0-1.084c0.312-0.122,0.497,0.088,0.723,0.609c0.209,0.485,0.371,0.747,0.683,1.217
	c0.719,1.095,1.616,1.118,3.193,0.55c1.418-0.499,2.66-1.043,9.298-3.894l4.687-1.999c4.86-2.09,10.218-3.816,14.952-1.493
	c4.003,1.963,5.829,4.924,7.046,7.745c0.983,2.323,2.659,6.575,1.146,11.013c-1.055,3.105-3.58,6.151-9.93,8.862L86.781,416.455z
	 M84.966,367.805c3.593-0.882,4.671-1.738,4.81-2.759c0.098-0.846-0.051-1.727-0.213-2.486c-0.111-0.51-0.087-0.81,0.202-0.856
	c0.359-0.075,0.557,0.312,0.695,0.969c0.661,3.006,0.933,4.899,1.119,5.78c0.099,0.423,0.708,2.571,1.24,5.01
	c0.139,0.581,0.191,1.02-0.232,1.117c-0.289,0.05-0.435-0.201-0.534-0.67c-0.127-0.597-0.364-1.431-0.688-2.028
	c-0.656-1.13-2.023-1.019-6.089-0.185l-27.604,5.619c-0.934,0.197-1.616,0.197-1.715-0.249c-0.111-0.522,0.399-1.072,1.055-2.039
	c0.486-0.696,6.516-9.436,11.759-17.699c2.474-3.853,7.793-11.585,8.365-12.554l-0.051-0.226l-20.769,5.059
	c-2.833,0.648-3.615,1.269-3.84,2.5c-0.124,0.744,0.125,1.851,0.26,2.511c0.127,0.558,0.028,0.77-0.26,0.845
	c-0.359,0.076-0.522-0.435-0.685-1.117c-0.521-2.427-0.881-4.687-1.094-5.655c-0.111-0.525-0.633-2.239-1.13-4.54
	c-0.134-0.593-0.186-1.067,0.173-1.154c0.289-0.062,0.487,0.187,0.608,0.759c0.104,0.448,0.191,0.822,0.45,1.345
	c0.645,1.24,1.704,1.378,4.324,0.857l29.446-5.933c1.02-0.221,1.478-0.121,1.581,0.285c0.095,0.526-0.289,1.209-0.688,1.83
	c-2.134,3.529-6.923,10.815-10.661,16.69c-3.903,6.192-8.578,12.617-9.285,13.636l0.039,0.134L84.966,367.805z M61.997,325.26
	c-7.223,0.45-8.551,0.536-10.068,0.723c-1.604,0.198-2.387,0.72-2.549,1.79c-0.122,0.521-0.122,1.154-0.087,1.726
	c0.028,0.459-0.051,0.748-0.422,0.771c-0.297,0.036-0.411-0.336-0.458-1.106c-0.127-1.789-0.162-4.809-0.25-6.188
	c-0.074-1.169-0.399-3.979-0.509-5.791c-0.039-0.598,0.035-0.997,0.324-1.021c0.384-0.023,0.498,0.261,0.521,0.732
	c0.023,0.474,0.099,0.86,0.222,1.431c0.323,1.255,1.146,1.604,2.836,1.564c1.502,0,2.846-0.072,10.068-0.521l8.361-0.546
	c4.611-0.284,8.354-0.521,10.392-0.846c1.268-0.222,2.103-0.608,2.202-2.04c0.06-0.67,0.087-1.726,0.036-2.433
	c-0.024-0.522,0.098-0.771,0.347-0.783c0.312-0.027,0.498,0.35,0.521,0.87c0.201,3.146,0.249,6.123,0.325,7.433
	c0.074,1.078,0.398,4.062,0.521,5.967c0.051,0.608-0.076,0.955-0.412,0.968c-0.233,0.023-0.395-0.162-0.418-0.735
	c-0.051-0.708-0.19-1.264-0.312-1.687c-0.237-0.945-1.071-1.182-2.45-1.233c-2.01-0.099-5.764,0.127-10.376,0.423L61.997,325.26z
	 M51.803,303.891c-2.672,0.925-3.256,1.708-3.825,3.375c-0.249,0.707-0.3,1.466-0.312,1.837c-0.036,0.435-0.186,0.574-0.471,0.55
	c-0.375-0.026-0.387-0.55-0.339-1.257c0.149-2.524,0.474-5.22,0.572-6.887c0.076-1.178,0.076-3.474,0.238-5.852
	c0.035-0.574,0.161-1.083,0.497-1.072c0.336,0.027,0.411,0.316,0.372,0.755c-0.035,0.751-0.035,1.47,0.226,1.87
	c0.209,0.339,0.533,0.508,0.956,0.533c0.621,0.039,1.988-0.304,3.73-0.849l22.096-6.802l0.017-0.192
	c-5.098-2.368-20.001-9.531-23.068-10.866c-0.6-0.281-1.295-0.51-1.731-0.538c-0.383-0.023-0.771,0.135-0.944,0.561
	c-0.225,0.565-0.312,1.261-0.347,1.885c-0.024,0.422-0.111,0.806-0.435,0.774c-0.383-0.012-0.447-0.454-0.399-1.348
	c0.151-2.379,0.423-4.362,0.462-4.971c0.059-0.822,0.059-3.059,0.146-4.493c0.04-0.616,0.166-0.983,0.498-0.972
	c0.336,0.027,0.4,0.319,0.376,0.79c-0.028,0.47-0.087,1.478,0.423,2.367c0.371,0.647,1.153,1.41,4.101,2.876
	c4.363,2.139,6.836,3.589,12.514,6.528c6.749,3.494,11.783,6.058,14.095,7.248c2.671,1.411,3.406,1.75,3.367,2.414
	c-0.036,0.612-0.719,0.854-3.007,1.617L51.803,303.891z M65.265,261.761c-7.072-1.518-8.364-1.794-9.882-2.026
	c-1.604-0.234-2.434-0.037-3.083,1.429c-0.174,0.356-0.395,1.13-0.533,1.787c-0.111,0.521-0.26,0.773-0.585,0.706
	c-0.336-0.074-0.348-0.418-0.197-1.118c0.261-1.265,0.608-2.6,0.857-3.754c0.308-1.212,0.569-2.268,0.719-2.916
	c0.313-1.489,2.316-10.755,2.45-11.656c0.099-0.89,0.163-1.668,0.15-2.051c0-0.244-0.075-0.56-0.024-0.79
	c0.061-0.23,0.246-0.241,0.482-0.193c0.324,0.071,0.833,0.423,2.948,1.019c0.458,0.154,2.485,0.692,3.02,0.897
	c0.221,0.099,0.474,0.252,0.41,0.581c-0.074,0.319-0.312,0.367-0.746,0.28c-0.325-0.075-1.119-0.206-1.727-0.086
	c-0.908,0.15-1.565,0.49-2.352,2.762c-0.26,0.775-1.403,5.636-1.6,6.567c-0.052,0.241,0.059,0.355,0.395,0.435l11.771,2.529
	c0.336,0.063,0.522,0.063,0.585-0.219c0.225-1.03,1.379-6.376,1.506-7.468c0.146-1.146,0.158-1.873-0.213-2.383
	c-0.312-0.402-0.498-0.643-0.446-0.877c0.035-0.188,0.162-0.303,0.446-0.252c0.273,0.063,0.979,0.415,3.308,1.106
	c0.928,0.241,2.757,0.791,3.093,0.85c0.348,0.087,0.87,0.194,0.783,0.611c-0.075,0.333-0.273,0.384-0.51,0.333
	c-0.47-0.047-1.079-0.178-1.715-0.165c-0.983,0.023-1.813,0.521-2.375,2.22c-0.284,0.849-1.315,5.453-1.552,6.571
	c-0.052,0.233,0.123,0.324,0.398,0.375l3.68,0.79c1.576,0.341,5.852,1.309,7.207,1.546c3.233,0.604,4.102,0.02,5.122-4.729
	c0.26-1.226,0.683-3.169,0.375-4.505c-0.288-1.323-1.158-2.103-2.986-2.841c-0.495-0.193-0.668-0.327-0.609-0.652
	c0.102-0.379,0.461-0.292,0.932-0.197c1.071,0.24,4.153,1.284,5.051,1.715c1.129,0.585,1.042,1.007,0.656,2.777
	c-0.747,3.485-1.392,6.034-1.865,8.018c-0.521,1.984-0.881,3.423-1.178,4.821c-0.114,0.51-0.324,1.529-0.525,2.659
	c-0.233,1.072-0.395,2.295-0.608,3.232c-0.122,0.616-0.32,0.897-0.66,0.826c-0.233-0.047-0.332-0.261-0.209-0.826
	c0.15-0.695,0.186-1.273,0.173-1.715c0.013-0.968-0.956-1.41-2.264-1.897c-1.912-0.652-5.591-1.442-9.878-2.366L65.265,261.761z
	 M74.088,227.499c-6.749-2.608-7.989-3.095-9.443-3.549c-1.558-0.494-2.387-0.42-3.273,0.928c-0.221,0.316-0.557,1.055-0.794,1.68
	c-0.198,0.481-0.383,0.726-0.695,0.6c-0.312-0.119-0.272-0.474-0.024-1.138c0.905-2.355,2.126-5.089,2.486-6.026
	c0.585-1.505,1.75-4.944,2.288-6.314c1.079-2.79,2.497-5.662,5.069-7.433c1.32-0.921,4.276-1.822,7.259-0.664
	c3.28,1.272,5.766,3.81,7.669,9.712c6.5-2.039,11.646-3.563,15.399-5.116c3.543-1.502,4.56-3.193,4.947-3.822
	c0.272-0.443,0.485-0.837,0.619-1.193c0.139-0.348,0.336-0.471,0.562-0.383c0.349,0.131,0.325,0.47,0.124,1.004l-1.64,4.228
	c-0.957,2.477-1.605,3.512-2.672,4.417c-1.766,1.521-4.512,2.394-8.886,3.56c-3.133,0.83-6.934,1.724-7.831,2.027
	c-0.349,0.123-0.498,0.368-0.622,0.684l-1.58,3.821c-0.087,0.229-0.047,0.391,0.213,0.509l0.632,0.225
	c4.125,1.604,7.634,2.956,9.582,3.466c1.343,0.355,2.426,0.466,3.121-0.787c0.336-0.64,0.807-1.58,1.008-2.114
	c0.146-0.359,0.348-0.485,0.57-0.398c0.3,0.13,0.311,0.485,0.103,1.059c-0.995,2.573-2.403,5.816-2.664,6.481
	c-0.324,0.837-1.28,3.691-1.964,5.469c-0.221,0.572-0.47,0.837-0.782,0.715c-0.225-0.095-0.284-0.316-0.086-0.854
	c0.26-0.664,0.375-1.237,0.446-1.659c0.15-0.961-0.719-1.558-1.951-2.237c-1.774-0.944-5.279-2.304-9.37-3.884L74.088,227.499z
	 M79.632,223.618c0.474,0.19,0.696,0.166,0.944-0.102c0.684-0.799,1.332-2.086,1.754-3.192c0.684-1.783,0.736-2.43,0.471-3.451
	c-0.459-1.706-2.012-3.777-5.655-5.196c-6.303-2.441-9.732,1.031-10.751,3.656c-0.423,1.106-0.695,1.92-0.731,2.417
	c-0.04,0.359,0.099,0.51,0.458,0.651L79.632,223.618z M107.648,203.817c-0.66,0.498-0.933,0.51-1.853-0.012
	c-2.272-1.299-4.659-2.877-5.295-3.289c-0.593-0.39-0.992-0.777-0.806-1.106c0.226-0.367,0.62-0.205,0.945-0.012
	c0.533,0.305,1.505,0.633,2.322,0.814c3.58,0.837,6.09-0.972,7.543-3.537c2.115-3.729,0.625-6.993-1.564-8.235
	c-2.04-1.15-4.288-1.604-8.934,0.304l-2.573,1.055c-6.14,2.528-9.934,2.458-13.288,0.562c-4.561-2.601-5.666-8.258-2.387-14.016
	c1.517-2.695,2.919-4.201,3.83-5.102c0.284-0.328,0.533-0.458,0.821-0.304c0.534,0.304,1.64,1.158,4.869,2.991
	c0.908,0.522,1.18,0.825,0.983,1.154c-0.163,0.292-0.471,0.279-0.968,0c-0.375-0.218-1.779-0.739-3.359-0.479
	c-1.13,0.174-3.066,0.671-4.584,3.354c-1.742,3.071-1.019,5.944,1.467,7.346c1.9,1.082,3.9,0.968,8.451-0.992l1.529-0.66
	c6.611-2.877,10.476-3.035,14.419-0.803c2.395,1.359,4.734,3.889,4.995,7.979c0.134,2.82-0.806,5.357-2.051,7.546
	C110.793,200.783,109.45,202.482,107.648,203.817 M106.569,164.498c-5.856-4.275-6.923-5.051-8.203-5.88
	c-1.368-0.877-2.3-0.963-3.122-0.264c-0.423,0.347-0.833,0.813-1.153,1.272c-0.289,0.391-0.526,0.56-0.846,0.344
	c-0.225-0.162-0.074-0.537,0.372-1.159c1.066-1.454,2.948-3.789,3.765-4.915c0.696-0.964,2.236-3.307,3.308-4.773
	c0.359-0.49,0.671-0.751,0.894-0.585c0.312,0.233,0.212,0.509-0.064,0.909c-0.285,0.379-0.47,0.707-0.731,1.228
	c-0.561,1.178-0.139,1.964,1.165,3.023c1.17,0.975,2.253,1.762,8.093,6.026l6.772,4.938c3.73,2.723,6.749,4.943,8.543,5.999
	c1.106,0.636,2,0.866,2.979-0.167c0.486-0.485,1.182-1.275,1.592-1.857c0.312-0.423,0.558-0.524,0.771-0.379
	c0.26,0.187,0.149,0.585-0.15,1.001c-1.85,2.532-3.739,4.875-4.497,5.922c-0.648,0.874-2.288,3.391-3.422,4.92
	c-0.372,0.508-0.68,0.69-0.94,0.497c-0.19-0.138-0.202-0.379,0.134-0.838c0.424-0.584,0.672-1.094,0.857-1.506
	c0.411-0.877-0.074-1.588-1.106-2.516c-1.479-1.36-4.508-3.592-8.251-6.315L106.569,164.498z M118.289,132.436l-4.726,5.282
	c-1.826,2.075-2.435,3.07-2.173,4.319c0.197,0.826,0.447,1.387,0.672,1.727c0.197,0.333,0.249,0.561,0.047,0.766
	c-0.238,0.242-0.471,0.154-0.847-0.205c-0.557-0.521-3.093-4.156-3.291-4.492c-0.359-0.522-0.462-0.825-0.272-1.031
	c0.259-0.281,0.932-0.292,1.825-1.095c1.042-0.901,2.363-2.161,3.43-3.308l12.952-13.695c1.055-1.106,1.664-1.956,2.087-2.541
	c0.386-0.628,0.584-0.972,0.71-1.103c0.222-0.232,0.459-0.087,0.98,0.411c0.735,0.671,3.019,3.047,3.916,3.897
	c0.324,0.355,0.458,0.62,0.261,0.825c-0.261,0.281-0.497,0.19-1.042-0.264l-0.423-0.328c-0.957-0.778-2.81-0.767-5.793,2.249
	l-4.228,4.264l14.197,13.403c3.182,3.003,5.915,5.588,7.568,6.816c1.059,0.822,2.014,1.324,3.133,0.411
	c0.534-0.411,1.332-1.106,1.812-1.616c0.365-0.396,0.625-0.47,0.799-0.305c0.245,0.229,0.087,0.608-0.276,0.977
	c-2.161,2.291-4.322,4.37-5.232,5.345c-0.757,0.794-2.709,3.071-4.014,4.453c-0.423,0.451-0.759,0.605-1.008,0.364
	c-0.174-0.158-0.146-0.399,0.249-0.802c0.498-0.522,0.81-1.008,1.044-1.379c0.512-0.83-0.049-1.754-0.957-2.81
	c-1.292-1.541-4.026-4.129-7.208-7.127L118.289,132.436z M154.445,126.595c-0.198,0.154-0.215,0.296-0.111,0.578l2.249,6.911
	c0.359,1.228,0.881,2.275,1.244,2.722c0.534,0.676,1.241,0.877,2.41-0.04l0.558-0.447c0.434-0.351,0.621-0.367,0.793-0.142
	c0.238,0.3,0.08,0.553-0.347,0.87c-1.178,0.952-2.867,2.115-4.015,3.039c-0.418,0.331-2.387,2.077-4.31,3.62
	c-0.471,0.379-0.772,0.481-1.008,0.188c-0.175-0.217-0.075-0.418,0.214-0.651c0.331-0.266,0.828-0.727,1.09-0.988
	c1.54-1.588,1.244-3.429,0.498-5.884l-9.293-30.812c-0.411-1.435-0.521-2.023-0.165-2.315c0.351-0.269,0.833-0.114,1.893,0.447
	c2.532,1.335,20.594,11.754,27.482,15.529c4.072,2.212,5.58,1.885,6.511,1.435c0.645-0.329,1.229-0.74,1.677-1.106
	c0.299-0.23,0.508-0.349,0.722-0.072c0.233,0.292-0.04,0.632-1.42,1.726c-1.342,1.068-4.05,3.233-7.083,5.536
	c-0.708,0.499-1.155,0.854-1.356,0.598c-0.172-0.229-0.085-0.415,0.249-0.751c0.214-0.281,0.201-0.826-0.334-1.134l-9.283-5.509
	c-0.214-0.126-0.387-0.114-0.574,0.04L154.445,126.595z M160.545,118.677c0.174-0.151,0.127-0.273,0-0.363l-10.676-6.517
	c-0.151-0.129-0.349-0.28-0.459-0.193s-0.04,0.331,0.047,0.514l3.881,11.886c0.087,0.173,0.212,0.269,0.36,0.138L160.545,118.677z
	 M185.269,118.373c-0.823,0.106-1.07-0.023-1.604-0.925c-1.333-2.256-2.625-4.809-2.972-5.488c-0.319-0.644-0.47-1.169-0.138-1.359
	c0.374-0.218,0.623,0.123,0.81,0.458c0.323,0.522,0.995,1.3,1.604,1.874c2.706,2.489,5.781,2.162,8.312,0.657
	c3.69-2.186,4.016-5.75,2.724-7.911c-1.195-2.016-2.92-3.529-7.904-4.176l-2.75-0.36c-6.587-0.854-9.843-2.797-11.807-6.108
	c-2.672-4.505-0.823-9.973,4.873-13.348c2.659-1.581,4.623-2.19,5.855-2.518c0.423-0.146,0.696-0.146,0.87,0.135
	c0.311,0.532,0.845,1.821,2.746,5.014c0.532,0.901,0.596,1.299,0.26,1.494c-0.273,0.174-0.545,0-0.834-0.487
	c-0.22-0.371-1.164-1.513-2.659-2.074c-1.083-0.411-2.995-0.945-5.654,0.632c-3.048,1.798-3.829,4.651-2.375,7.105
	c1.119,1.885,2.908,2.757,7.82,3.327l1.674,0.186c7.149,0.786,10.59,2.572,12.89,6.456c1.418,2.379,2.188,5.734,0.387,9.401
	c-1.278,2.524-3.354,4.251-5.52,5.54C189.506,117.305,187.494,118.108,185.269,118.373 M433.862,83.793l-6.215-3.433
	c-2.438-1.313-3.545-1.691-4.686-1.146c-0.77,0.378-1.268,0.747-1.542,1.03c-0.273,0.281-0.498,0.368-0.747,0.226
	c-0.284-0.163-0.249-0.415,0.024-0.877c0.375-0.644,3.358-3.931,3.63-4.213c0.425-0.454,0.698-0.636,0.945-0.484
	c0.338,0.192,0.5,0.845,1.479,1.529c1.122,0.813,2.637,1.809,3.992,2.611l16.255,9.546c1.32,0.763,2.299,1.186,2.96,1.458
	c0.683,0.229,1.071,0.348,1.228,0.435c0.291,0.182,0.191,0.446-0.173,1.055c-0.51,0.866-2.284,3.632-2.933,4.702
	c-0.273,0.388-0.509,0.581-0.747,0.447c-0.319-0.205-0.296-0.462,0.04-1.103l0.221-0.467c0.533-1.122,0.114-2.923-3.489-5.144
	l-5.109-3.169l-9.883,16.84c-2.225,3.778-4.125,7.021-4.958,8.926c-0.551,1.206-0.834,2.261,0.312,3.149
	c0.521,0.412,1.368,1.032,1.987,1.392c0.446,0.269,0.584,0.506,0.459,0.712c-0.163,0.292-0.574,0.217-1.008-0.052
	c-2.719-1.578-5.232-3.232-6.386-3.897c-0.933-0.561-3.596-1.956-5.232-2.916c-0.538-0.316-0.759-0.608-0.584-0.901
	c0.11-0.206,0.349-0.23,0.846,0.062c0.608,0.359,1.153,0.574,1.577,0.704c0.921,0.316,1.69-0.435,2.509-1.553
	c1.217-1.604,3.121-4.86,5.345-8.633L433.862,83.793z M455.315,110.865c4.711-5.485,5.569-6.505,6.5-7.726
	c0.98-1.284,1.178-2.11,0.221-3.385c-0.238-0.316-0.819-0.89-1.327-1.308c-0.4-0.345-0.545-0.612-0.324-0.854
	c0.213-0.253,0.533-0.111,1.066,0.355c1.916,1.64,4.101,3.702,5.186,4.635c0.857,0.739,3.218,2.596,4.535,3.702
	c0.537,0.474,0.736,0.751,0.51,1.008c-0.221,0.249-0.493,0.138-0.857-0.17c-0.396-0.34-0.645-0.493-1.142-0.798
	c-1.135-0.648-1.952-0.281-3.095,0.913c-1.069,1.098-1.927,2.114-6.648,7.597l-4.339,5.055c-4.501,5.243-5.347,8.353-4.826,11.305
	c0.498,2.734,2.026,4.299,3.26,5.359c1.589,1.358,3.976,2.532,6.664,2.327c3.69-0.28,6.585-3.449,9.778-7.164l3.881-4.505
	c4.709-5.5,5.566-6.508,6.5-7.713c0.979-1.3,1.181-2.126,0.208-3.398c-0.237-0.332-0.806-0.877-1.206-1.237
	c-0.398-0.331-0.558-0.596-0.336-0.842c0.214-0.252,0.534-0.118,1.032,0.316c1.841,1.581,4.026,3.643,4.066,3.683
	c0.434,0.37,2.806,2.212,4.212,3.421c0.497,0.435,0.684,0.716,0.474,0.984c-0.212,0.241-0.498,0.134-0.932-0.245
	c-0.387-0.336-0.636-0.483-1.129-0.787c-1.135-0.656-1.953-0.292-3.11,0.913c-1.071,1.094-1.925,2.099-6.64,7.598l-3.314,3.853
	c-3.445,4.011-7.508,7.93-12.779,7.93c-4.45,0-7.381-1.833-9.733-3.841c-1.923-1.639-5.294-4.733-5.879-9.376
	c-0.423-3.236,0.498-7.093,4.982-12.336L455.315,110.865z M491.396,144.847c5.643-4.533,6.674-5.37,7.804-6.401
	c1.193-1.079,1.553-1.858,0.823-3.292c-0.164-0.348-0.638-1.02-1.044-1.529c-0.323-0.411-0.434-0.691-0.173-0.901
	c0.26-0.206,0.545,0,0.979,0.546c1.593,1.956,3.354,4.386,3.99,5.164c1.008,1.261,3.395,3.984,4.312,5.142
	c1.878,2.343,3.654,5.002,3.905,8.107c0.125,1.604-0.57,4.604-3.059,6.607c-2.735,2.213-6.189,3.082-12.241,1.798
	c-1.495,6.642-2.736,11.854-3.27,15.893c-0.487,3.805,0.486,5.54,0.817,6.172c0.25,0.474,0.486,0.841,0.725,1.129
	c0.232,0.309,0.249,0.538,0.058,0.692c-0.296,0.229-0.568,0.036-0.939-0.411l-2.823-3.521c-1.678-2.079-2.241-3.157-2.5-4.533
	c-0.434-2.28,0.174-5.09,1.368-9.471c0.844-3.117,1.976-6.86,2.161-7.784c0.075-0.364-0.071-0.613-0.285-0.885l-2.521-3.28
	c-0.151-0.182-0.299-0.229-0.548-0.062l-0.51,0.435c-3.442,2.758-6.378,5.129-7.781,6.562c-0.98,0.968-1.616,1.857-0.868,3.082
	c0.371,0.621,0.956,1.506,1.315,1.944c0.236,0.292,0.236,0.534,0.064,0.679c-0.273,0.218-0.585,0.037-0.981-0.446
	c-1.715-2.152-3.816-4.979-4.263-5.54c-0.574-0.703-2.561-2.951-3.754-4.43c-0.4-0.478-0.487-0.825-0.238-1.042
	c0.198-0.151,0.423-0.091,0.783,0.359c0.446,0.545,0.874,0.944,1.22,1.217c0.732,0.616,1.716,0.142,2.908-0.573
	c1.7-1.067,4.637-3.422,8.039-6.168L491.396,144.847z M491.991,151.584c-0.421,0.328-0.498,0.521-0.398,0.877
	c0.363,0.98,1.157,2.185,1.889,3.106c1.208,1.486,1.742,1.857,2.762,2.126c1.702,0.474,4.275,0.163,7.321-2.28
	c5.256-4.239,3.962-8.95,2.208-11.139c-0.73-0.924-1.314-1.564-1.727-1.845c-0.283-0.206-0.481-0.146-0.794,0.075L491.991,151.584z
	 M516.626,179.619c6.226-3.667,7.369-4.35,8.642-5.204c1.34-0.893,1.801-1.723,1.478-2.75c-0.151-0.526-0.423-1.07-0.712-1.568
	c-0.245-0.403-0.296-0.708,0.017-0.901c0.259-0.142,0.521,0.142,0.917,0.802c0.919,1.553,2.299,4.212,3.022,5.393
	c0.596,1.031,2.148,3.375,3.069,4.927c0.309,0.538,0.411,0.917,0.174,1.06c-0.323,0.19-0.561,0-0.81-0.408
	c-0.232-0.422-0.458-0.726-0.833-1.161c-0.854-0.992-1.751-0.914-3.228-0.134c-1.37,0.683-2.514,1.359-8.754,5.038l-7.207,4.252
	c-3.979,2.335-7.223,4.251-8.886,5.456c-1.032,0.779-1.604,1.49-1.045,2.826c0.262,0.624,0.708,1.568,1.079,2.188
	c0.25,0.447,0.25,0.727,0.053,0.838c-0.289,0.182-0.608-0.087-0.87-0.533c-1.593-2.699-2.995-5.359-3.644-6.461
	c-0.571-0.949-2.212-3.462-3.168-5.105c-0.324-0.522-0.36-0.893-0.087-1.054c0.225-0.12,0.436-0.033,0.724,0.454
	c0.354,0.624,0.73,1.066,1.043,1.392c0.643,0.719,1.489,0.545,2.746-0.013c1.838-0.822,5.082-2.729,9.061-5.069L516.626,179.619z
	 M513.097,209.915c2-5.872,6.44-9.057,10.715-10.819c2.995-1.236,8.55-2.461,14.167,0.158c4.215,1.964,7.709,5.414,10.404,11.972
	c1.144,2.719,1.639,4.422,2.212,6.548c0.474,1.773,0.659,3.339,1.066,4.71c0.151,0.498,0.017,0.767-0.259,0.877
	c-0.349,0.142-0.934,0.229-2.51,0.778c-1.479,0.521-3.876,1.564-4.797,1.833c-0.685,0.229-1.083,0.293-1.229-0.103
	c-0.139-0.351,0.158-0.58,0.796-0.837c1.325-0.616,2.646-1.822,3.33-3.398c0.945-2.087,0.707-6.01-0.974-10.057
	c-1.587-3.821-3.59-5.935-6.147-7.14c-4.279-1.988-8.789-1.094-13.051,0.672c-10.479,4.331-12.369,14.438-9.93,20.326
	c1.611,3.912,3.042,6.109,5.789,7.029c1.142,0.403,2.659,0.455,3.516,0.292c0.759-0.153,0.961-0.143,1.119,0.206
	c0.125,0.316-0.135,0.532-0.494,0.671c-0.525,0.218-4.575,1.272-6.255,1.467c-0.847,0.075-1.132,0-1.738-0.628
	c-1.442-1.474-3.131-4.678-4.288-7.497C512.042,220.955,511.272,215.343,513.097,209.915 M544.419,245.571
	c7.058-1.588,8.365-1.88,9.831-2.302c1.542-0.444,2.208-0.992,2.201-2.593c0-0.399-0.138-1.202-0.276-1.846
	c-0.123-0.509-0.087-0.802,0.236-0.885c0.325-0.071,0.498,0.229,0.648,0.933c0.273,1.265,0.547,2.613,0.794,3.766
	c0.238,1.225,0.424,2.308,0.558,2.951c0.349,1.495,2.427,10.732,2.665,11.598c0.296,0.864,0.545,1.592,0.73,1.932
	c0.098,0.229,0.302,0.474,0.349,0.715c0.062,0.229-0.124,0.316-0.349,0.368c-0.32,0.078-0.932-0.04-3.105,0.308
	c-0.474,0.052-2.538,0.418-3.123,0.455c-0.232,0-0.532-0.023-0.608-0.352c-0.074-0.316,0.138-0.474,0.55-0.562
	c0.333-0.063,1.106-0.292,1.611-0.652c0.759-0.521,1.223-1.106,0.984-3.496c-0.087-0.803-1.093-5.703-1.303-6.631
	c-0.051-0.233-0.213-0.292-0.535-0.221l-11.757,2.635c-0.326,0.075-0.498,0.171-0.436,0.435c0.237,1.032,1.431,6.366,1.764,7.42
	c0.336,1.095,0.635,1.755,1.193,2.076c0.45,0.236,0.722,0.367,0.77,0.6c0.051,0.19-0.023,0.352-0.296,0.418
	c-0.272,0.051-1.059,0.04-3.471,0.38c-0.944,0.17-2.832,0.45-3.168,0.521c-0.359,0.075-0.87,0.205-0.957-0.229
	c-0.087-0.316,0.087-0.459,0.309-0.511c0.463-0.134,1.069-0.279,1.644-0.556c0.869-0.451,1.431-1.249,1.228-3.003
	c-0.109-0.909-1.104-5.523-1.355-6.631c-0.047-0.229-0.236-0.241-0.521-0.182l-3.667,0.83c-1.577,0.36-5.862,1.272-7.196,1.613
	c-3.18,0.813-3.725,1.711-2.659,6.452c0.272,1.213,0.719,3.157,1.529,4.24c0.847,1.086,1.94,1.426,3.929,1.328
	c0.521-0.031,0.73,0.023,0.804,0.343c0.076,0.379-0.283,0.455-0.753,0.569c-1.072,0.233-4.303,0.573-5.294,0.549
	c-1.28-0.051-1.367-0.474-1.767-2.237c-0.787-3.477-1.267-6.062-1.68-8.072c-0.347-2.008-0.62-3.461-0.932-4.86
	c-0.121-0.51-0.347-1.529-0.645-2.636c-0.236-1.07-0.595-2.256-0.81-3.181c-0.134-0.597-0.075-0.96,0.249-1.032
	c0.238-0.062,0.423,0.1,0.55,0.657c0.159,0.691,0.371,1.236,0.556,1.635c0.385,0.877,1.468,0.89,2.859,0.775
	c2.001-0.218,5.681-1.044,9.945-1.999L544.419,245.571z M535.656,286.196c-3.703,0.229-4.92,0.897-5.22,1.858
	c-0.261,0.814-0.272,1.722-0.25,2.485c0.013,0.525-0.062,0.814-0.347,0.814c-0.383,0.016-0.497-0.408-0.51-1.067
	c-0.125-3.093-0.038-5.002-0.087-5.903c-0.011-0.435-0.22-2.667-0.311-5.133c-0.024-0.619,0.011-1.059,0.438-1.07
	c0.285-0.013,0.396,0.28,0.407,0.753c0.013,0.622,0.1,1.471,0.313,2.123c0.436,1.237,1.801,1.375,5.952,1.276l28.181-0.56
	c0.956-0.036,1.611,0.075,1.628,0.549c0.036,0.521-0.575,0.975-1.396,1.813c-0.598,0.589-8.117,8.096-14.75,15.288
	c-3.123,3.351-9.744,10.017-10.48,10.851v0.237l21.342-1.233c2.908-0.15,3.801-0.62,4.224-1.762
	c0.273-0.735,0.226-1.865,0.213-2.529c-0.027-0.573,0.111-0.778,0.396-0.778c0.37-0.023,0.434,0.497,0.458,1.217
	c0.104,2.46,0.029,4.75,0.08,5.756c0.007,0.522,0.221,2.324,0.296,4.659c0.023,0.621,0,1.095-0.399,1.106
	c-0.273,0.013-0.423-0.261-0.447-0.834c-0.011-0.47-0.024-0.856-0.186-1.425c-0.447-1.309-1.455-1.656-4.125-1.616l-30.02,0.532
	c-1.042,0.035-1.489-0.122-1.502-0.561c-0.027-0.522,0.483-1.106,0.992-1.652c2.752-3.094,8.765-9.408,13.487-14.53
	c4.958-5.37,10.712-10.85,11.585-11.744v-0.149L535.656,286.196z M529.254,330.107c0.447-0.695,0.706-0.82,1.742-0.671
	c2.597,0.398,5.394,0.973,6.142,1.131c0.707,0.149,1.201,0.363,1.141,0.733c-0.062,0.436-0.485,0.411-0.857,0.359
	c-0.624-0.074-1.627-0.034-2.474,0.076c-3.643,0.533-5.307,3.134-5.728,6.054c-0.61,4.253,1.963,6.726,4.471,7.096
	c2.3,0.336,4.561-0.062,8.191-3.539l2.012-1.916c4.8-4.611,8.353-5.915,12.17-5.37c5.185,0.745,8.278,5.605,7.346,12.158
	c-0.447,3.054-1.195,4.982-1.703,6.152c-0.164,0.423-0.336,0.62-0.672,0.568c-0.608-0.087-1.936-0.471-5.62-0.992
	c-1.031-0.149-1.391-0.336-1.34-0.711c0.049-0.348,0.348-0.445,0.923-0.359c0.417,0.052,1.91,0.024,3.278-0.782
	c0.997-0.573,2.608-1.738,3.042-4.798c0.516-3.493-1.216-5.891-4.05-6.312c-2.162-0.312-3.963,0.544-7.496,4.025l-1.177,1.194
	c-5.109,5.058-8.638,6.626-13.125,5.978c-2.735-0.387-5.83-1.889-7.556-5.604c-1.169-2.559-1.222-5.271-0.862-7.756
	C527.453,334.086,528.087,332.02,529.254,330.107 M543.51,370.515c6.958,1.964,8.255,2.324,9.744,2.647
	c1.577,0.359,2.474,0.127,2.995-0.822c0.29-0.459,0.499-1.043,0.66-1.589c0.124-0.457,0.285-0.723,0.658-0.62
	c0.276,0.1,0.26,0.471,0.051,1.219c-0.487,1.726-1.442,4.57-1.825,5.901c-0.313,1.144-0.932,3.877-1.432,5.631
	c-0.172,0.598-0.359,0.934-0.635,0.858c-0.356-0.111-0.383-0.411-0.262-0.858c0.14-0.475,0.19-0.845,0.262-1.418
	c0.125-1.292-0.568-1.89-2.134-2.435c-1.432-0.509-2.723-0.873-9.684-2.834l-8.053-2.286c-4.438-1.258-8.065-2.276-10.08-2.636
	c-1.27-0.227-2.19-0.126-2.759,1.182c-0.289,0.62-0.648,1.6-0.847,2.288c-0.15,0.505-0.347,0.707-0.571,0.632
	c-0.324-0.087-0.36-0.498-0.211-0.997c0.846-3.018,1.802-5.862,2.151-7.119c0.296-1.043,0.98-3.967,1.502-5.805
	c0.162-0.598,0.376-0.87,0.71-0.771c0.222,0.062,0.325,0.274,0.159,0.835c-0.197,0.683-0.261,1.252-0.285,1.702
	c-0.075,0.957,0.623,1.455,1.905,1.964c1.86,0.771,5.493,1.79,9.93,3.043L543.51,370.515z M515.471,387.308
	c0.621-0.571,0.893-0.596,1.865-0.201c2.382,1.047,4.936,2.352,5.615,2.687c0.648,0.337,1.07,0.673,0.908,1.02
	c-0.161,0.396-0.584,0.272-0.932,0.123c-0.57-0.25-1.553-0.47-2.399-0.573c-3.638-0.424-5.926,1.645-7.096,4.35
	c-1.714,3.917,0.122,6.986,2.438,7.995c2.134,0.933,4.433,1.142,8.848-1.257l2.421-1.328c5.844-3.185,9.622-3.521,13.151-1.992
	c4.812,2.08,6.527,7.596,3.902,13.648c-1.233,2.846-2.46,4.489-3.267,5.506c-0.249,0.347-0.474,0.521-0.787,0.37
	c-0.557-0.245-1.75-0.965-5.156-2.434c-0.968-0.42-1.253-0.707-1.108-1.043c0.127-0.308,0.447-0.336,0.984-0.099
	c0.396,0.174,1.827,0.545,3.368,0.123c1.105-0.309,2.971-1.021,4.201-3.854c1.395-3.228,0.376-6.014-2.249-7.134
	c-2.016-0.884-3.975-0.532-8.302,1.913l-1.431,0.811c-6.262,3.592-10.091,4.16-14.244,2.348c-2.534-1.095-5.133-3.355-5.818-7.382
	c-0.458-2.798,0.202-5.409,1.209-7.732C512.685,390.652,513.833,388.822,515.471,387.308 M175.514,531.66
	c-0.302,0-0.701-0.03-1.448-0.229c-0.679-0.197-0.904-0.742-1.142-2.37l-2.421-15.909c-0.111-0.608-0.436-0.979-0.833-1.011
	c-0.372,0.016-0.661,0.316-0.883,0.773l-6.961,14.147l-6.971-13.973c-0.336-0.695-0.625-0.948-0.995-0.948
	c-0.387,0.016-0.672,0.379-0.736,0.845l-2.631,16.833c-0.115,0.854-0.411,1.778-0.921,1.786c-0.4,0.055-0.572,0.055-0.781,0.055
	c-0.325,0-0.614,0.144-0.638,0.468c0,0.435,0.434,0.514,0.695,0.514c0.87,0,2.142-0.079,2.635-0.079c0.475,0,1.691,0.079,2.81,0.079
	c0.387,0,0.847-0.04,0.857-0.514c-0.035-0.349-0.336-0.458-0.632-0.468c-0.226,0-0.447-0.03-0.897-0.109
	c-0.447-0.096-0.643-0.189-0.643-0.537c0-0.427,0.034-0.743,0.087-1.194l1.204-9.499c0.894,1.825,2.236,4.575,2.41,5.012
	c0.313,0.759,2.426,4.669,3.071,5.862c0.445,0.792,0.683,1.368,1.255,1.424c0.494-0.023,0.645-0.403,1.253-1.581l5.496-11.024
	l1.391,10.589c0.025,0.238,0.037,0.42,0.037,0.546c0.016,0.308-0.037,0.308-0.024,0.34c-0.185,0.063-0.411,0.158-0.423,0.466
	c0.029,0.364,0.36,0.499,0.984,0.522c1.066,0.055,4.86,0.166,5.532,0.166c0.396-0.017,0.854-0.023,0.916-0.514
	C176.146,531.755,175.798,531.66,175.514,531.66 M197.261,515.721c-2.982-3.004-7.542-2.98-10.874-2.98
	c-1.604,0-3.532,0.048-4.328,0.048c-0.757,0-2.461-0.048-3.863-0.048c-0.359,0-0.772,0.023-0.823,0.436
	c0.029,0.371,0.389,0.498,0.672,0.498c0.387,0,0.846,0.024,1.008,0.071c0.821,0.292,0.908,0.363,0.995,1.21
	c0.037,0.805,0.037,1.539,0.037,5.452v4.536c0,2.363,0,4.401-0.124,5.469c-0.102,0.75-0.225,1.099-0.623,1.169
	c-0.222,0.048-0.5,0.078-0.893,0.078c-0.389,0-0.632,0.245-0.632,0.499c0.007,0.371,0.383,0.482,0.73,0.482
	c0.548,0,1.217-0.023,1.853-0.047c0.634,0,1.218-0.032,1.502-0.032c0.661,0,1.617,0.056,2.672,0.143
	c1.082,0.062,2.241,0.149,3.22,0.149c4.959,0,7.831-1.833,9.084-3.082c1.557-1.518,2.972-4.046,2.972-7.334
	C199.846,519.317,198.641,517.088,197.261,515.721 M195.594,523.157c0,2.632-0.545,4.86-2.185,6.236
	c-1.564,1.28-3.284,1.691-5.68,1.691c-2.078,0.016-3.058-0.561-3.318-0.934c-0.138-0.15-0.238-1.09-0.249-1.698
	c-0.04-0.514-0.076-2.49-0.076-5.209v-3.246c0-2.024,0-4.151,0.036-5.019c0.029-0.278,0-0.223,0.186-0.326
	c0.116-0.07,1.061-0.173,1.569-0.148c2.074,0,4.908,0.252,7.307,2.387C194.33,517.878,195.594,519.94,195.594,523.157
	 M220.839,527.331c-0.359-0.008-0.521,0.347-0.545,0.695c-0.075,0.427-0.438,1.146-0.872,1.62c-0.994,1.113-2.197,1.288-4.549,1.288
	c-3.481,0-8.087-2.807-8.104-8.812c0-2.498,0.484-4.891,2.386-6.52c1.157-0.996,2.584-1.423,4.884-1.423
	c2.426,0,4.165,0.641,4.998,1.455c0.636,0.624,0.944,1.51,0.968,2.252c0,0.324,0.053,0.743,0.5,0.774
	c0.457-0.055,0.544-0.499,0.571-0.862c0.024-0.521,0.024-1.952,0.088-2.772c0.075-0.917,0.138-1.193,0.138-1.454
	c0.023-0.261-0.253-0.506-0.602-0.506c-0.767-0.087-1.638-0.277-2.648-0.436c-1.228-0.149-2.247-0.26-3.927-0.26
	c-3.986,0-6.611,1.043-8.587,2.773c-2.612,2.348-3.196,5.414-3.196,7.216c0,2.521,0.711,5.523,3.394,7.768
	c2.486,2.087,5.643,2.846,9.31,2.846c1.742,0,3.765-0.144,4.895-0.594c0.476-0.165,0.712-0.427,0.835-0.893
	c0.272-0.924,0.572-3.122,0.572-3.484C221.349,527.734,221.239,527.37,220.839,527.331 M242.193,527.331
	c-0.372-0.008-0.523,0.347-0.558,0.695c-0.063,0.427-0.427,1.146-0.861,1.62c-0.981,1.113-2.185,1.288-4.549,1.288
	c-3.48,0-8.075-2.807-8.087-8.812c0-2.498,0.47-4.891,2.37-6.52c1.17-0.996,2.584-1.423,4.886-1.423
	c2.425,0,4.163,0.641,5.009,1.455c0.621,0.624,0.933,1.51,0.971,2.252c0,0.324,0.06,0.743,0.471,0.774
	c0.47-0.055,0.557-0.499,0.597-0.862c0.023-0.521,0.023-1.952,0.088-2.772c0.063-0.917,0.111-1.193,0.125-1.454
	c0.007-0.261-0.253-0.506-0.6-0.506c-0.766-0.087-1.64-0.277-2.648-0.436c-1.217-0.149-2.238-0.26-3.928-0.26
	c-3.997,0-6.609,1.043-8.585,2.773c-2.612,2.348-3.197,5.414-3.197,7.216c-0.009,2.521,0.71,5.523,3.422,7.768
	c2.474,2.087,5.614,2.846,9.28,2.846c1.728,0,3.782-0.144,4.896-0.594c0.475-0.165,0.734-0.427,0.821-0.893
	c0.285-0.924,0.585-3.122,0.585-3.484C242.702,527.734,242.593,527.37,242.193,527.331 M263.546,527.331
	c-0.347-0.008-0.534,0.347-0.55,0.695c-0.069,0.427-0.418,1.146-0.854,1.62c-0.996,1.113-2.2,1.288-4.575,1.288
	c-3.453,0-8.069-2.807-8.076-8.812c0-2.498,0.47-4.891,2.371-6.52c1.17-0.996,2.572-1.423,4.898-1.423
	c2.411,0,4.15,0.641,4.997,1.455c0.62,0.624,0.944,1.51,0.966,2.252c0,0.324,0.063,0.743,0.487,0.774
	c0.474-0.055,0.561-0.499,0.584-0.862c0.023-0.521,0.023-1.952,0.087-2.772c0.064-0.917,0.111-1.193,0.111-1.454
	c0.024-0.261-0.222-0.506-0.585-0.506c-0.759-0.087-1.64-0.277-2.661-0.436c-1.204-0.149-2.223-0.26-3.899-0.26
	c-4.002,0-6.625,1.043-8.602,2.773c-2.595,2.348-3.209,5.414-3.209,7.216c0,2.521,0.736,5.523,3.435,7.768
	c2.474,2.087,5.614,2.846,9.27,2.846c1.767,0,3.794-0.144,4.907-0.594c0.474-0.165,0.723-0.427,0.823-0.893
	c0.3-0.924,0.585-3.122,0.585-3.484C264.057,527.734,263.946,527.37,263.546,527.331 M366.595,531.66
	c-0.236,0-0.656-0.03-0.968-0.125c-0.55-0.174-0.921-0.427-1.354-0.972c-0.622-0.744-4.822-7.397-5.841-8.946l4.322-5.919
	c0.823-1.115,1.321-1.764,1.803-1.889c0.347-0.087,0.67-0.135,0.919-0.135c0.313,0,0.622-0.167,0.636-0.498
	c-0.027-0.388-0.41-0.459-0.71-0.459c-1.004,0-2.11,0.071-2.595,0.071c-0.51,0-1.767-0.071-2.799-0.071
	c-0.36,0-0.757,0.071-0.783,0.459c0.013,0.364,0.325,0.498,0.547,0.498c0.202,0,0.561,0,0.77,0.071
	c0.238,0.063,0.312,0.188,0.312,0.236c0,0.135-0.074,0.498-0.272,0.806c-0.413,0.688-2.486,3.731-3.407,5.098
	c-1.008-1.675-2.051-3.367-3.157-5.326c-0.138-0.229-0.249-0.577-0.249-0.648c0-0.023,0.023-0.102,0.196-0.165
	c0.191-0.047,0.476-0.071,0.585-0.071c0.285,0,0.637-0.127,0.65-0.498c-0.025-0.388-0.423-0.459-0.759-0.459
	c-1.021,0-2.648,0.071-3.007,0.071c-1.268,0-3.407-0.071-4.066-0.071c-0.307,0.023-0.696,0.023-0.757,0.435
	c0,0.285,0.196,0.522,0.485,0.522c0.238,0,0.66,0.048,1.072,0.189c0.881,0.269,1.351,0.75,2.034,1.771l4.601,7.199l-5.11,6.938
	c-0.932,1.241-1.292,1.589-2.011,1.778c-0.359,0.079-0.746,0.109-0.92,0.109c-0.3,0.01-0.572,0.222-0.572,0.523
	c0,0.323,0.31,0.458,0.595,0.458h0.474c0.436,0,1.74-0.079,2.225-0.079c0.672,0,2.422,0.079,2.584,0.079h0.486
	c0.347,0,0.743-0.04,0.77-0.458c-0.027-0.325-0.272-0.499-0.548-0.523c-0.198,0-0.412-0.03-0.584-0.03
	c-0.16,0-0.298-0.095-0.298-0.198c-0.011-0.023-0.011-0.047-0.011-0.047c0-0.19,0.127-0.521,0.371-0.894l3.73-5.785
	c1.17,1.929,2.561,4.229,4.026,6.631c0.053,0.071,0.053,0.15,0.053,0.175c0.011,0.039-0.017,0.039-0.017,0.039
	c-0.272,0.055-0.534,0.253-0.534,0.546c0.1,0.481,0.498,0.458,1.146,0.498c2.201,0.047,4.323,0.047,4.971,0.047h0.783
	c0.313,0,0.696-0.079,0.73-0.482C367.132,531.858,366.856,531.66,366.595,531.66 M389.217,531.66c-0.226,0-0.636-0.03-0.958-0.125
	c-0.561-0.174-0.92-0.427-1.355-0.972c-0.621-0.744-4.836-7.397-5.857-8.946l4.341-5.919c0.821-1.115,1.318-1.764,1.789-1.889
	c0.347-0.087,0.671-0.135,0.921-0.135c0.323,0,0.621-0.167,0.621-0.498c-0.013-0.388-0.399-0.459-0.684-0.459
	c-1.009,0-2.102,0.071-2.608,0.071c-0.511,0-1.754-0.071-2.785-0.071c-0.372,0-0.785,0.071-0.81,0.459
	c0.015,0.364,0.351,0.498,0.549,0.498c0.225,0,0.572,0,0.794,0.071c0.237,0.063,0.325,0.188,0.312,0.236
	c0,0.135-0.087,0.498-0.289,0.806c-0.407,0.688-2.481,3.731-3.389,5.098c-1.008-1.675-2.052-3.367-3.159-5.326
	c-0.161-0.229-0.259-0.577-0.249-0.648c0-0.023,0.011-0.102,0.198-0.165c0.189-0.047,0.451-0.071,0.585-0.071
	c0.272,0,0.632-0.127,0.632-0.498c-0.009-0.388-0.407-0.459-0.767-0.459c-0.984,0-2.648,0.071-2.988,0.071
	c-1.276,0-3.415-0.071-4.061-0.071c-0.325,0.023-0.697,0.023-0.759,0.435c0,0.285,0.212,0.522,0.485,0.522
	c0.249,0,0.661,0.048,1.068,0.189c0.873,0.269,1.354,0.75,2.026,1.771l4.611,7.199l-5.132,6.938
	c-0.91,1.241-1.281,1.589-1.989,1.778c-0.374,0.079-0.757,0.109-0.921,0.109c-0.323,0.01-0.572,0.222-0.572,0.523
	c0,0.323,0.3,0.458,0.598,0.458h0.458c0.451,0,1.742-0.079,2.241-0.079c0.66,0,2.409,0.079,2.583,0.079h0.487
	c0.347,0,0.729-0.04,0.759-0.458c-0.029-0.325-0.262-0.499-0.55-0.523c-0.185,0-0.398-0.03-0.572-0.03s-0.297-0.079-0.297-0.198
	c0-0.023-0.011-0.047-0.011-0.047c0-0.19,0.124-0.521,0.359-0.894l3.731-5.785c1.18,1.929,2.561,4.229,4.026,6.631
	c0.063,0.071,0.063,0.15,0.063,0.175c0.011,0.039-0.029,0.039-0.029,0.039c-0.283,0.055-0.521,0.253-0.521,0.546
	c0.087,0.481,0.486,0.458,1.159,0.498c2.172,0.047,4.299,0.047,4.947,0.047h0.783c0.323,0,0.694-0.079,0.73-0.482
	C389.751,531.858,389.489,531.66,389.217,531.66 M411.838,531.66c-0.213,0-0.636-0.03-0.956-0.125
	c-0.55-0.174-0.91-0.427-1.356-0.972c-0.636-0.744-4.824-7.397-5.843-8.946l4.339-5.919c0.806-1.115,1.304-1.764,1.778-1.889
	c0.359-0.087,0.67-0.135,0.932-0.135c0.309,0,0.621-0.167,0.632-0.498c-0.024-0.388-0.411-0.459-0.696-0.459
	c-1.008,0-2.114,0.071-2.606,0.071c-0.499,0-1.754-0.071-2.786-0.071c-0.385,0-0.783,0.071-0.796,0.459
	c0.013,0.364,0.325,0.498,0.545,0.498c0.214,0,0.562,0,0.782,0.071c0.226,0.063,0.313,0.188,0.302,0.236
	c0.011,0.135-0.076,0.498-0.278,0.806c-0.406,0.688-2.48,3.731-3.405,5.098c-1.015-1.675-2.046-3.367-3.152-5.326
	c-0.14-0.229-0.249-0.577-0.249-0.648c0-0.023,0.023-0.102,0.196-0.165c0.203-0.047,0.463-0.071,0.597-0.071
	c0.273,0,0.608-0.127,0.632-0.498c-0.024-0.388-0.419-0.459-0.767-0.459c-0.995,0-2.648,0.071-2.995,0.071
	c-1.273,0-3.422-0.071-4.054-0.071c-0.336,0.023-0.719,0.023-0.77,0.435c0,0.285,0.225,0.522,0.485,0.522
	c0.245,0,0.672,0.048,1.066,0.189c0.886,0.269,1.368,0.75,2.027,1.771l4.624,7.199l-5.132,6.938c-0.921,1.241-1.281,1.589-2,1.778
	c-0.363,0.079-0.746,0.109-0.91,0.109c-0.31,0.01-0.571,0.222-0.571,0.523c0,0.323,0.299,0.458,0.597,0.458h0.458
	c0.434,0,1.743-0.079,2.251-0.079c0.648,0,2.399,0.079,2.572,0.079h0.486c0.333,0,0.73-0.04,0.759-0.458
	c-0.029-0.325-0.289-0.499-0.549-0.523c-0.198,0-0.412-0.03-0.573-0.03c-0.175,0-0.309-0.079-0.309-0.198v-0.047
	c-0.011-0.19,0.123-0.521,0.36-0.894l3.73-5.785c1.166,1.929,2.561,4.229,4.027,6.631c0.063,0.071,0.063,0.15,0.063,0.175
	c0.011,0.039-0.027,0.039-0.027,0.039c-0.285,0.055-0.521,0.253-0.521,0.546c0.085,0.481,0.485,0.434,1.141,0.498
	c2.19,0.047,4.315,0.047,4.947,0.047h0.799c0.307,0,0.694-0.079,0.73-0.482C412.384,531.858,412.112,531.66,411.838,531.66
	 M425.771,531.66c-0.373,0-0.997-0.03-1.321-0.086c-0.719-0.143-0.767-0.34-0.894-1.02c-0.109-1.074-0.109-3.137-0.109-5.61v-4.536
	c0-3.913,0-4.647,0.047-5.452c0.102-0.895,0.188-1.045,0.832-1.194c0.298-0.062,0.487-0.087,0.749-0.087
	c0.262,0,0.643-0.15,0.643-0.522c-0.058-0.411-0.447-0.411-0.77-0.435c-1.032,0-2.757,0.071-3.418,0.071
	c-0.759,0-2.572-0.071-3.58-0.071c-0.395,0.023-0.783,0-0.857,0.435c0,0.372,0.376,0.522,0.648,0.522
	c0.324,0,0.632,0.024,0.908,0.111c0.507,0.196,0.668,0.323,0.755,1.17c0.027,0.805,0.027,1.539,0.027,5.452v4.536
	c0,2.474,0,4.536-0.127,5.58c-0.098,0.758-0.172,0.963-0.619,1.058c-0.211,0.048-0.51,0.078-0.883,0.078
	c-0.397,0-0.646,0.245-0.646,0.499c0.011,0.396,0.399,0.482,0.734,0.482c1.068,0,2.893-0.079,3.478-0.079
	c0.722,0,2.548,0.079,4.315,0.079c0.323,0,0.695-0.079,0.719-0.482C426.403,531.881,426.142,531.66,425.771,531.66 M441.952,531.66
	c-0.383,0-0.992-0.03-1.328-0.086c-0.707-0.143-0.759-0.34-0.885-1.02c-0.134-1.074-0.134-3.137-0.134-5.61v-4.536
	c0-3.913,0-4.647,0.074-5.452c0.1-0.895,0.185-1.045,0.819-1.194c0.311-0.062,0.498-0.087,0.745-0.087
	c0.274,0,0.651-0.15,0.651-0.522c-0.066-0.411-0.437-0.411-0.759-0.435c-1.045,0-2.775,0.071-3.431,0.071
	c-0.746,0-2.575-0.071-3.58-0.071c-0.4,0.023-0.773,0-0.846,0.435c0,0.372,0.359,0.522,0.645,0.522c0.312,0,0.637,0.024,0.897,0.111
	c0.511,0.196,0.672,0.323,0.759,1.17c0.034,0.805,0.034,1.539,0.034,5.452v4.536c0,2.474,0,4.536-0.121,5.58
	c-0.127,0.758-0.191,0.963-0.625,1.058c-0.222,0.048-0.521,0.078-0.892,0.078c-0.399,0-0.634,0.245-0.634,0.499
	c0.009,0.396,0.383,0.482,0.719,0.482c1.068,0,2.897-0.079,3.478-0.079c0.734,0,2.552,0.079,4.316,0.079
	c0.323,0,0.693-0.079,0.733-0.482C442.587,531.881,442.311,531.66,441.952,531.66 M458.125,531.66c-0.387,0-0.985-0.03-1.332-0.086
	c-0.723-0.143-0.759-0.34-0.881-1.02c-0.127-1.074-0.127-3.137-0.127-5.61v-4.536c0-3.913,0-4.647,0.063-5.452
	c0.098-0.895,0.185-1.045,0.833-1.194c0.296-0.062,0.47-0.087,0.747-0.087c0.269,0,0.632-0.15,0.632-0.522
	c-0.062-0.411-0.434-0.411-0.759-0.435c-1.03,0-2.757,0.071-3.429,0.071c-0.747,0-2.572-0.071-3.568-0.071
	c-0.412,0.023-0.784,0-0.859,0.435c0,0.372,0.373,0.522,0.648,0.522c0.32,0,0.632,0.024,0.904,0.111
	c0.511,0.196,0.672,0.323,0.749,1.17c0.035,0.805,0.035,1.539,0.035,5.452v4.536c0,2.474,0,4.536-0.122,5.58
	c-0.111,0.758-0.186,0.963-0.61,1.058c-0.225,0.048-0.519,0.078-0.908,0.078c-0.394,0-0.632,0.245-0.632,0.499
	c0.011,0.396,0.396,0.482,0.73,0.482c1.061,0,2.897-0.079,3.481-0.079c0.719,0,2.55,0.079,4.316,0.079
	c0.309,0,0.695-0.079,0.731-0.482C458.77,531.881,458.484,531.66,458.125,531.66 M297.888,406.93v-15.125
	c0-2.821-2.288-5.121-5.122-5.121c-2.822,0-5.122,2.3-5.122,5.121v15.125H297.888z M325.591,406.93v-15.125
	c0-2.821-2.287-5.121-5.109-5.121c-2.833,0-5.133,2.3-5.133,5.121v15.125H325.591z M306.624,102.789
	c-2.967,0-5.381,2.402-5.381,5.37c0,2.962,2.414,5.365,5.381,5.365c2.972,0,5.382-2.403,5.382-5.365
	C312.006,105.19,309.596,102.789,306.624,102.789 M303.929,252.676h5.405v-11.632h-5.405V252.676z M252.509,546.526
	c-2.971,0-5.369,2.409-5.369,5.366c0,2.987,2.397,5.374,5.369,5.374c2.972,0,5.383-2.387,5.383-5.374
	C257.893,548.935,255.481,546.526,252.509,546.526 M249.238,252.882v-17.121c-0.024-4.01-1.989-6.789-4.947-8.081
	c-2.955,1.292-4.907,4.07-4.943,8.081v17.121H249.238z M249.238,197.882v-11.044c-0.024-4.027-1.989-6.796-4.947-8.097
	c-2.955,1.301-4.907,4.083-4.943,8.097v11.044H249.238z M246.93,312.311v-14.352c0-1.466-1.181-2.659-2.663-2.659
	c-1.466,0-2.659,1.193-2.659,2.659v14.352H246.93z M246.93,355.488v-14.331c0-1.491-1.181-2.672-2.663-2.672
	c-1.466,0-2.659,1.181-2.659,2.672v14.331H246.93z M248.507,403.727v-12.729c0-2.374-1.94-4.314-4.311-4.314
	c-2.375,0-4.292,1.94-4.292,4.314v12.729H248.507z M244.284,43.387c-2.974,0-5.375,2.407-5.375,5.371
	c0,2.967,2.401,5.369,5.375,5.369c2.965,0,5.365-2.402,5.365-5.369C249.649,45.793,247.25,43.387,244.284,43.387 M373.865,252.882
	v-17.121c-0.034-4.01-2-6.789-4.947-8.081c-2.944,1.292-4.92,4.07-4.946,8.081v17.121H373.865z M373.865,197.882v-11.044
	c-0.034-4.027-2-6.796-4.947-8.097c-2.944,1.301-4.92,4.083-4.946,8.097v11.044H373.865z M371.553,312.311v-14.352
	c0-1.466-1.18-2.659-2.659-2.659c-1.465,0-2.659,1.193-2.659,2.659v14.352H371.553z M371.553,355.488v-14.331
	c0-1.491-1.18-2.672-2.659-2.672c-1.465,0-2.659,1.181-2.659,2.672v14.331H371.553z M373.122,403.727v-12.729
	c0-2.374-1.929-4.314-4.29-4.314c-2.399,0-4.312,1.94-4.312,4.314v12.729H373.122z M368.907,43.387
	c-2.968,0-5.371,2.407-5.371,5.371c0,2.967,2.403,5.369,5.371,5.369c2.971,0,5.371-2.402,5.371-5.369
	C374.277,45.793,371.878,43.387,368.907,43.387 M765.021,271.853c-48.846,0-59.856-26.597-59.856-56.193V114.52h29.802v99.307
	c0,19.504,6.426,33.264,32.134,33.264c22.926,0,32.559-9.642,32.559-36.009V114.52h29.58v94.716
	C829.24,251.668,805.848,271.853,765.021,271.853 M931.074,269.335v-72.939c0-11.925-3.223-19.042-13.994-19.042
	c-14.904,0-26.6,16.979-26.6,36.934v55.047h-29.36V155.349h27.755c0,5.272-0.458,14.213-1.604,20.184l0.229,0.234
	c6.867-13.545,20.184-22.942,38.763-22.942c25.67,0,33.936,16.512,33.936,36.467v80.044H931.074z M1006.751,140.678
	c-10.09,0-18.119-8.037-18.119-17.9c0-9.633,8.029-17.666,18.119-17.666c10.093,0,18.337,7.804,18.337,17.666
	C1025.088,132.641,1016.844,140.678,1006.751,140.678 M992.077,155.349h29.367v113.986h-29.367V155.349z M1109.954,269.335h-29.809
	l-42.191-113.986h32.099l18.115,51.369c2.757,7.801,5.515,16.979,7.576,25.225h0.46c1.825-7.792,4.125-16.504,6.86-24.312
	l18.357-52.281h31.2L1109.954,269.335z M1257.414,217.055h-70.635c-0.229,21.314,10.312,31.639,31.42,31.639
	c11.231,0,23.393-2.525,33.256-7.117l2.733,22.709c-12.14,4.821-26.585,7.337-40.803,7.337c-36.239,0-56.418-18.109-56.418-58.247
	c0-34.863,19.259-60.551,53.44-60.551c33.246,0,47.938,22.708,47.938,50.909C1258.346,207.63,1258.107,212.227,1257.414,217.055
	 M1209.483,174.392c-12.155,0-20.643,8.93-22.247,22.701h41.973C1229.667,182.867,1221.867,174.392,1209.483,174.392
	 M1343.879,181.717c-21.094-4.362-31.627,9.409-31.627,41.06v46.559h-29.36V155.349h27.731c0,5.727-0.688,14.901-2.071,22.931h0.475
	c5.499-14.455,16.51-27.055,36.234-25.455L1343.879,181.717z M1384,271.623c-8.244,0-16.509-0.912-23.851-2.058l0.72-24.081
	c7.089,1.834,15.788,3.438,24.522,3.438c11.236,0,18.57-4.587,18.57-12.154c0-20.189-46.095-8.721-46.095-47.477
	c0-19.955,16.302-36.467,48.379-36.467c6.662,0,14.021,0.909,20.879,2.066l-0.893,23.159c-6.434-1.826-14.004-2.976-21.116-2.976
	c-11.467,0-16.967,4.58-16.967,11.696c0,18.579,46.776,10.321,46.776,47.247C1434.926,256.489,1415.207,271.623,1384,271.623
	 M1474.605,140.678c-10.092,0-18.12-8.037-18.12-17.9c0-9.633,8.028-17.666,18.12-17.666c10.086,0,18.352,7.804,18.352,17.666
	C1492.957,132.641,1484.691,140.678,1474.605,140.678 M1459.914,155.349h29.375v113.986h-29.375V155.349z M1563.575,271.623
	c-25.256,0-33.271-9.171-33.271-35.775V178.05h-19.488v-22.701h19.488v-35.092l29.358-7.8v42.892h27.755v22.701h-27.755v49.997
	c0,14.684,3.431,18.813,13.53,18.813c4.797,0,10.084-0.691,14.225-1.833v23.621C1580.061,270.481,1571.589,271.623,1563.575,271.623
	 M1676.593,269.335c0-6.654,0.237-13.297,1.155-19.271l-0.223-0.229c-5.532,12.846-19.513,21.787-36.494,21.787
	c-20.628,0-32.537-11.696-32.537-30.046c0-27.288,27.045-41.73,65.825-41.73v-6.204c0-11.926-5.74-18.11-22.249-18.11
	c-10.336,0-24.111,3.438-33.744,8.939l-2.514-24.542c11.474-4.121,26.151-7.104,40.834-7.104c36.7,0,47.008,14.913,47.008,39.676
	v47.472c0,9.179,0.219,19.955,0.679,29.363H1676.593z M1636.232,136.537c-8.725,0-15.829-7.113-15.829-15.821
	c0-8.95,7.104-15.833,15.829-15.833c8.719,0,15.838,6.883,15.838,15.833C1652.07,129.424,1644.951,136.537,1636.232,136.537
	 M1674.319,218.88c-30.974,0-37.856,8.939-37.856,18.117c0,7.338,5.041,12.154,13.529,12.154c14.446,0,24.327-13.757,24.327-27.517
	V218.88z M1682.561,136.537c-8.711,0-15.838-7.113-15.838-15.821c0-8.95,7.127-15.833,15.838-15.833
	c8.709,0,15.821,6.883,15.821,15.833C1698.382,129.424,1691.27,136.537,1682.561,136.537 M1776.098,271.623
	c-25.242,0-33.254-9.171-33.254-35.775V178.05h-19.507v-22.701h19.507v-35.092l29.342-7.8v42.892h27.778v22.701h-27.778v49.997
	c0,14.684,3.454,18.813,13.562,18.813c4.812,0,10.076-0.691,14.217-1.833v23.621
	C1792.606,270.481,1784.127,271.623,1776.098,271.623 M699.438,511.675v-22.951l55.715-90.814c3.207-5.283,6.44-9.871,10.107-14.691
	c-5.508,0.234-12.849,0.46-28.214,0.46H701.27v-26.824h99.995v23.84l-58.948,93.119c-2.292,3.667-4.355,7.112-7.096,10.786
	c3.887-0.441,14.437-0.441,33.476-0.441h33.483v27.518H699.438z M897.078,511.675c0-5.271,0.212-14.226,1.382-20.2l-0.236-0.221
	c-6.883,13.529-19.947,22.925-38.764,22.925c-25.683,0-33.941-16.517-33.941-36.463v-80.043h29.128v72.931
	c0,11.934,3.209,19.054,14.217,19.054c14.914,0,26.373-16.976,26.373-36.938v-55.046h29.358v114.002H897.078z M850.505,378.869
	c-8.7,0-15.821-7.097-15.821-15.837c0-8.934,7.121-15.821,15.821-15.821c8.725,0,15.837,6.888,15.837,15.821
	C866.343,371.772,859.23,378.869,850.505,378.869 M896.856,378.869c-8.725,0-15.837-7.097-15.837-15.837
	c0-8.934,7.112-15.821,15.837-15.821c8.701,0,15.813,6.888,15.813,15.821C912.67,371.772,905.558,378.869,896.856,378.869
	 M1017.248,424.048c-21.092-4.362-31.651,9.404-31.651,41.062v46.564h-29.352V397.673H984c0,5.729-0.688,14.916-2.07,22.945h0.467
	c5.492-14.446,16.5-27.07,36.226-25.455L1017.248,424.048z M1054.51,383.005c-10.092,0-18.121-8.028-18.121-17.907
	c0-9.61,8.029-17.64,18.121-17.64c10.091,0,18.333,7.78,18.333,17.64C1072.843,374.977,1064.601,383.005,1054.51,383.005
	 M1039.824,397.673h29.375v114.002h-29.375V397.673z M1142.01,513.722c-31.645,0-51.369-16.502-51.369-55.271
	c0-35.548,18.58-62.841,58.946-62.841c7.792,0,16.035,1.142,23.394,3.206l-2.979,25.478c-6.197-2.308-13.302-4.134-20.649-4.134
	c-18.58,0-27.977,13.759-27.977,35.311c0,19.487,7.569,32.796,27.059,32.796c7.794,0,16.279-1.612,22.482-4.82l2.285,25.005
	C1165.409,511.437,1154.164,513.722,1142.01,513.722 M1266.082,511.675V438.74c0-11.934-3.199-19.054-13.987-19.054
	c-14.92,0-26.603,16.976-26.603,36.922v55.067h-29.356V344.227h29.356v48.87c0,6.888-0.457,16.497-2.077,23.171l0.476,0.21
	c6.646-12.838,19.724-21.314,37.388-21.314c25.676,0,33.948,16.517,33.948,36.463v80.049H1266.082z M1340.613,403.664
	c-18.594,0-23.084-10.029-23.084-21.725v-37.812h13.498v37.028c0,6.836,2.165,11.16,10.456,11.16
	c7.619,0,10.573-3.206,10.573-11.931v-36.258h13.316v35.472C1365.373,396.057,1356.135,403.664,1340.613,403.664 M1376.628,402.545
	V391.98l18.783-31.423c0.934-1.541,1.977-3.03,3.122-4.496c-1.543,0.087-3.557,0.175-9.199,0.175h-12.083v-12.108h37.808v10.977
	l-19.822,31.841c-0.693,1.133-1.382,2.091-2.252,3.296c1.123-0.173,4.403-0.173,11.333-0.173h11.064v12.478H1376.628z
	 M1462.664,402.545v-24.337h-21.393v24.337h-13.481v-58.418h13.481v22.424h21.393v-22.424h13.483v58.418H1462.664z M0,306.618
	C0,137.264,137.279,0,306.613,0c169.344,0,306.612,137.264,306.612,306.618c0,169.32-137.268,306.6-306.612,306.6
	C137.279,613.217,0,475.938,0,306.618 M95.169,95.15C41.039,149.276,7.583,224.014,7.583,306.618
	c0,82.579,33.456,157.324,87.587,211.442c54.116,54.119,128.851,87.579,211.444,87.579c82.591,0,157.329-33.46,211.455-87.579
	c54.118-54.118,87.587-128.863,87.587-211.442c0-82.604-33.469-157.342-87.587-211.468C463.942,41.031,389.205,7.575,306.613,7.575
	C224.021,7.575,149.285,41.031,95.169,95.15 M311.249,499.315h2.474v-4.323h-5.892v9.586h3.429L311.249,499.315z M306.613,19.955
	c-158.27,0-286.576,128.302-286.576,286.563c0,158.27,128.306,286.58,286.576,286.58c158.273,0,286.562-128.311,286.562-286.58
	C593.176,148.256,464.887,19.955,306.613,19.955 M274.896,549.695h-12.989v4.322h12.989v32.205
	c-65.068-7.294-123.412-36.74-167.335-80.657c-6.302-6.306-12.305-12.912-17.983-19.772c1.143-6.985,7.196-12.305,14.502-12.305
	c8.131,0,14.708,6.591,14.708,14.708v14.152h18.688v-0.094h0.017v-14.059c0-8.117,6.576-14.708,14.7-14.708
	c8.144,0,14.731,6.591,14.731,14.708v14.152h18.665v-0.094v-14.059c0-8.117,6.604-14.708,14.731-14.708
	c8.117,0,14.728,6.591,14.728,14.708v14.152h18.67v-0.094v-14.059c0-8.117,6.598-14.708,14.727-14.708
	c8.128,0,14.719,6.591,14.719,14.708v14.152h11.732V549.695z M328.279,587.194c-7.149,0.545-14.372,0.813-21.666,0.813
	c-7.283,0-14.506-0.269-21.651-0.805l-5.323-33.186h6.142c-1.542-3.644-4.19-10.004-5.221-12.589
	c-1.651-4.155-0.411-6.892,2.352-7.958c2.682-1.042,5.713,0.428,6.662,3.968l2.695,10.076h3.915v6.503v1.305h-9.273v4.323h13.573
	l0.027-5.628h16.455l-0.013-6.503h3.928l2.722-10.076c0.944-3.54,4.014-5.01,6.709-3.968c2.786,1.066,4.016,3.803,2.363,7.958
	c-0.447,1.139-1.169,2.996-1.963,5.02l-3.667,8.874h-9.905v4.323h12.8l2.325-5.628h1.344L328.279,587.194z M297.714,492.335h17.821
	c0.699,1.637,2.403,5.785,3.445,8.173c0.719,1.667,1.652,3.47,0.521,5.295c-1.354,2.188-3.12,1.88-4.35,1.77
	c-0.064,0-0.151,0-0.226,0c-1.24,3.39-4.473,5.841-8.302,5.841c-3.841,0-7.061-2.451-8.301-5.841c-0.074,0-0.151,0-0.212,0
	c-1.253,0.11-3.008,0.419-4.363-1.77c-1.131-1.825-0.198-3.628,0.521-5.295C295.315,498.121,297.019,493.972,297.714,492.335
	 M295.015,473.837l5.694,8.153l5.828-11.062l5.828,11.062l5.707-8.153l-2.261,14.169h-18.532L295.015,473.837z M301.839,513.887
	c1.331,3.723,4.884,6.409,9.088,6.409c4.537,0,8.314-3.152,9.357-7.382c2.823,0.127,5.632,0.949,8.429,3.296
	c2.683,2.245,3.728,6.126,4.101,8.038h-52.391c0.375-1.912,1.431-5.793,4.117-8.038
	C290.282,511.398,296.134,512.979,301.839,513.887 M323.453,528.587c-1.976,7.468-8.749,12.967-16.829,12.967
	c-8.076,0-14.838-5.499-16.829-12.967H323.453z M505.652,505.565c-43.911,43.917-102.242,73.347-167.294,80.657v-32.205h11.895
	c22.036,0,37.969-1.825,37.969-1.825s-16.396-2.497-37.969-2.497h-11.895v-47.347h14.217v-0.094v-14.059
	c0-8.117,6.599-14.708,14.715-14.708c8.131,0,14.731,6.591,14.731,14.708v14.152h18.667v-0.094h0.014v-14.059
	c0-8.117,6.584-14.708,14.715-14.708c8.129,0,14.716,6.591,14.716,14.708v14.152h18.694v-0.094v-14.059
	c0-8.117,6.575-14.708,14.715-14.708c8.127,0,14.715,6.591,14.715,14.708v14.152h18.67v-0.094v-14.059
	c0-8.117,6.598-14.708,14.727-14.708c6.453,0,11.921,4.142,13.896,9.918C519.312,491.136,512.673,498.547,505.652,505.565
	 M528.696,479.479c-3.255-6.884-10.265-11.656-18.398-11.656c-11.261,0-20.368,9.111-20.368,20.373v6.575h-7.387v-6.575
	c0-11.262-9.106-20.373-20.356-20.373c-11.246,0-20.37,9.111-20.37,20.373v6.575h-7.385v-6.575c0-11.262-9.135-20.373-20.37-20.373
	c-11.26,0-20.374,9.111-20.374,20.373v6.575h-7.368v-6.575c0-11.262-9.125-20.373-20.381-20.373
	c-11.249,0-20.374,9.111-20.374,20.373v6.575h-7.593c-2.325-15.237-15.45-26.948-31.348-26.948
	c-15.896,0-29.022,11.711-31.331,26.948h-7.831v-6.575c0-11.262-9.123-20.373-20.374-20.373c-11.26,0-20.382,9.111-20.382,20.373
	v6.575h-7.372v-6.575c0-11.262-9.11-20.373-20.37-20.373c-11.263,0-20.371,9.111-20.371,20.373v6.575h-7.384v-6.575
	c0-11.262-9.125-20.373-20.358-20.373c-11.262,0-20.385,9.111-20.385,20.373v6.575h-7.37v-6.575
	c0-11.262-9.123-20.373-20.369-20.373c-8.069,0-15.027,4.702-18.334,11.482c-4.971-6.362-9.646-12.977-14.06-19.773H542.89
	C538.442,466.383,533.716,473.045,528.696,479.479 M547.611,452H65.613c-1.418-2.3-2.759-4.662-4.102-7.024h490.203
	C550.371,447.338,549.016,449.701,547.611,452 M258.054,90.223v2.366c-0.063,0.475-0.187,1.186-0.439,1.845
	c-0.418,1.083-1.415,2.803-2.757,4.893c-0.51,0.837-1.404,2.225-2.388,4.223c-1.291-1.975-2.37-3.264-3.127-4.078
	c-0.859-0.885-1.976-2.034-2.909-3.116c-2.003-2.368-2.114-3.791-2.114-3.791s-0.062,1.423-2.063,3.791
	c-0.919,1.083-2.064,2.231-2.895,3.116c-0.783,0.83-1.878,2.143-3.186,4.142c-1.015-2.051-1.936-3.461-2.445-4.315
	c-1.344-2.099-2.352-3.82-2.759-4.899c-0.387-1.036-0.525-2.213-0.534-2.344v-1.833H258.054z M230.484,85.896
	c0.215-3.537,1.17-10.25,4.611-14.814c2.612-3.552,5.196-5.662,7.074-6.875c0.881-0.573,1.563-0.924,2.074-1.154
	c0.51,0.229,1.204,0.581,2.074,1.154c1.876,1.213,4.477,3.323,7.085,6.875c3.429,4.564,4.402,11.278,4.612,14.814H230.484z
	 M259.062,101.662c0.767,1.083,1.588,2.66,2.481,4.576c1.209,2.976,1.517,5.88,1.58,8.014v31.734h-8.18c0-6.99,0-22.354,0-31.734
	c0.04-2.172,0.424-5.207,1.582-8.041C257.52,103.982,258.327,102.705,259.062,101.662 M250.495,114.457l-0.013,31.528H238.09
	c0-8.8-0.011-31.528-0.011-31.54c0.111-2.074,0.273-4.927,1.754-7.854c1.564-3.083,4.497-4.917,4.497-4.917h0.011
	c0,0,2.798,1.834,4.352,4.917C250.257,109.672,250.408,112.358,250.495,114.457 M232.201,106.182
	c1.153,2.825,1.366,5.896,1.39,8.069l0.04,31.734h-8.069v-31.769c0.04-2.138,0.278-5.038,1.481-8.006
	c0.894-1.912,1.751-3.505,2.474-4.583C230.446,102.974,231.318,104.274,232.201,106.182 M269.364,161.407H219.2v-10.258h50.164
	V161.407z M269.364,165.734v39.993h-12.156v-17.999c0.013-5.972-2.188-11.025-5.843-14.486c-1.938-1.87-4.301-3.284-6.896-4.169
	c-0.162-0.056-0.151-0.072-0.151-0.072s-0.027,0.016-0.186,0.072c-2.601,0.885-4.958,2.299-6.911,4.169
	c-3.643,3.46-5.857,8.514-5.844,14.486v17.999h-12.19v-39.993H269.364z M252.895,187.728v17.999h-17.19v-17.999
	c0.063-6.96,3.481-11.776,8.586-14.04C249.413,175.941,252.834,180.768,252.895,187.728 M269.364,210.037v50.847h-11.148v-25.392
	c0-5.955-2.241-11.135-5.99-14.695c-2.003-1.929-4.379-3.34-6.987-4.251c-0.125-0.057-0.955-0.312-0.955-0.312
	s-0.776,0.256-0.863,0.3c-2.632,0.9-5.045,2.335-7.058,4.264c-3.752,3.56-5.99,8.756-5.977,14.695v25.392h-11.199v-50.847H269.364z
	 M253.89,235.528v25.356h-19.177v-25.392c0-4.883,1.785-8.843,4.635-11.565c1.403-1.355,3.082-2.343,4.943-3.083h0.017
	c1.889,0.74,3.527,1.728,4.918,3.083c2.874,2.723,4.651,6.682,4.651,11.565L253.89,235.528z M269.364,325.734H219.2V265.21h50.164
	V325.734z M269.364,369.536H219.2v-39.491h50.164V369.536z M269.364,440.652H219.2v-66.795h50.164V440.652z M313.524,210.472v18.022
	l-6.9-6.899l-6.887,6.888v-18.01H313.524z M299.939,205.291l5.033-21.583l2.086-36.083l1.233,36.067l5.035,21.599H299.939z
	 M306.624,228.937l31.943,31.947h-63.886L306.624,228.937z M338.595,289.658h-64.111V265.21h64.111V289.658z M338.595,297.22v28.514
	h-20.049v-7.148c0-6.563-5.334-11.904-11.921-11.904c-6.587,0-11.917,5.341-11.917,11.904v7.148h-20.223V297.22H338.595z
	 M294.707,330.044v25.443h23.839v-25.443h20.049v39.491h-64.111v-39.491H294.707z M338.595,440.652h-64.111v-66.795h64.111V440.652z
	 M382.677,90.223v2.366c-0.071,0.475-0.198,1.186-0.447,1.845c-0.407,1.083-1.402,2.803-2.758,4.893
	c-0.509,0.837-1.402,2.225-2.397,4.223c-1.268-1.975-2.352-3.264-3.123-4.078c-0.844-0.885-1.976-2.034-2.893-3.116
	c-2.015-2.368-2.114-3.791-2.114-3.791s-0.062,1.423-2.074,3.791c-0.932,1.083-2.054,2.231-2.899,3.116
	c-0.784,0.83-1.874,2.143-3.17,4.142c-1.019-2.051-1.936-3.461-2.458-4.315c-1.332-2.099-2.339-3.82-2.75-4.899
	c-0.395-1.048-0.521-2.257-0.534-2.355v-1.822H382.677z M355.096,85.896c0.212-3.537,1.186-10.25,4.615-14.814
	c2.608-3.552,5.192-5.662,7.081-6.875c0.874-0.573,1.567-0.924,2.078-1.154c0.511,0.229,1.207,0.581,2.076,1.154
	c1.876,1.213,4.475,3.323,7.083,6.875c3.431,4.564,4.388,11.278,4.6,14.814H355.096z M383.685,101.662
	c0.77,1.083,1.591,2.66,2.473,4.576c1.205,2.976,1.541,5.88,1.581,8.014v31.734h-8.167v-31.734c0.04-2.172,0.423-5.207,1.58-8.041
	C382.143,103.982,382.926,102.705,383.685,101.662 M375.122,114.457l-0.013,31.528h-12.39c-0.013-8.8-0.013-31.528-0.013-31.54
	c0.111-2.074,0.262-4.927,1.751-7.854c1.569-3.083,4.5-4.917,4.5-4.917h0.013c0,0,2.786,1.834,4.35,4.917
	C374.884,109.672,375.034,112.358,375.122,114.457 M356.827,106.182c1.153,2.825,1.355,5.896,1.378,8.069l0.053,31.734h-8.082
	v-31.769c0.051-2.138,0.273-5.038,1.489-8.006c0.886-1.912,1.744-3.505,2.474-4.583C355.06,102.974,355.941,104.274,356.827,106.182
	 M393.978,161.407h-50.167v-10.258h50.167V161.407z M393.978,165.734v39.993h-12.146v-17.999c0.015-5.972-2.197-11.025-5.829-14.486
	c-1.964-1.87-4.31-3.284-6.911-4.169c-0.158-0.056-0.147-0.072-0.147-0.072s-0.038,0.016-0.186,0.072
	c-2.611,0.885-4.975,2.299-6.914,4.169c-3.64,3.46-5.852,8.514-5.841,14.486v17.999h-12.194v-39.993H393.978z M377.521,187.728
	v17.999h-17.188v-17.999c0.051-6.96,3.465-11.776,8.574-14.04C374.026,175.941,377.457,180.768,377.521,187.728 M393.978,210.037
	v50.847h-11.149v-25.392c0.011-5.955-2.238-11.135-5.979-14.695c-2-1.929-4.374-3.34-6.999-4.251
	c-0.11-0.057-0.944-0.312-0.944-0.312s-0.772,0.256-0.857,0.3c-2.625,0.9-5.047,2.335-7.074,4.264
	c-3.738,3.56-5.974,8.756-5.966,14.695v25.392h-11.199v-50.847H393.978z M378.505,235.528v25.356h-19.169v-25.392
	c0-4.883,1.778-8.843,4.636-11.565c1.406-1.355,3.081-2.343,4.935-3.083h0.027c1.89,0.74,3.529,1.728,4.931,3.083
	c2.86,2.723,4.64,6.682,4.64,11.565V235.528z M393.978,325.734h-50.167V265.21h50.167V325.734z M393.978,369.536h-50.167v-39.491
	h50.167V369.536z M393.978,440.652h-50.167v-66.795h50.167V440.652z M401.694,440.652V145.985h-6.326v-32.497
	c-0.063-4.045-0.648-6.605-2.45-10.743c-0.447-1.044-1.09-2.201-1.825-3.344V87.667c0,0-0.013-9.204-3.816-16.138
	c-4.137-7.576-12.168-11.716-16.084-13.356c-0.892-0.427-1.477-0.62-1.604-0.647l-0.645-0.213l-0.81,0.213
	c-0.394,0.114-6.749,2.126-12.773,10.349c-5.481,7.563-5.671,17.22-5.719,19.896c0,0.446,0.013,0.679,0.013,0.727v10.819
	c-0.736,1.068-1.751,2.683-2.874,5.062c-1.664,4.122-1.789,7.939-1.836,10.242v31.367h-6.351v107.568l-17.425-17.41v-30.71
	l-5.908-19.809l-8.638-67.971l-6.373,65.123l-5.945,22.681v28.442l-17.239,17.249V145.985h-6.326v-32.497
	c-0.064-4.045-0.632-6.605-2.434-10.743c-0.453-1.044-1.106-2.201-1.831-3.344V87.667c0,0-0.023-9.204-3.812-16.138
	c-4.154-7.576-12.183-11.716-16.099-13.356c-0.893-0.427-1.479-0.62-1.604-0.647l-0.645-0.213l-0.793,0.213
	c-0.4,0.114-6.749,2.126-12.802,10.349c-5.469,7.563-5.66,17.22-5.694,19.896c0,0.446,0,0.679,0,0.727v10.819
	c-0.732,1.068-1.751,2.683-2.857,5.062c-1.68,4.122-1.791,7.939-1.854,10.242v31.367h-6.35v294.667H59.137
	C37.475,400.767,25.13,355.104,25.13,306.518c0-77.731,31.497-148.078,82.43-199.04c50.961-50.933,121.31-82.434,199.053-82.434
	c77.731,0,148.09,31.501,199.039,82.434c50.933,50.962,82.442,121.309,82.442,199.04c0,48.586-12.345,94.249-34.006,134.134H401.694
	z"/>
</svg>
